<svg width="32" height="32" viewBox="0 0 32 32" fill="none" xmlns="http://www.w3.org/2000/svg">
<path id="Union" fill-rule="evenodd" clip-rule="evenodd" d="M30 16C30 23.732 23.732 30 16 30C8.26801 30 2 23.732 2 16C2 8.26801 8.26801 2 16 2C23.732 2 30 8.26801 30 16ZM32 16C32 24.8366 24.8366 32 16 32C7.16344 32 0 24.8366 0 16C0 7.16344 7.16344 0 16 0C24.8366 0 32 7.16344 32 16ZM16 26C21.5228 26 26 21.5228 26 16C26 10.4772 21.5228 6 16 6C10.4772 6 6 10.4772 6 16C6 21.5228 10.4772 26 16 26Z" fill="#0347FF"/>
</svg>
