<svg width="32" height="32" viewBox="0 0 32 32" fill="none" xmlns="http://www.w3.org/2000/svg">
<path id="Union" fill-rule="evenodd" clip-rule="evenodd" d="M30 16C30 23.732 23.732 30 16 30C8.26801 30 2 23.732 2 16C2 8.26801 8.26801 2 16 2C23.732 2 30 8.26801 30 16ZM32 16C32 24.8366 24.8366 32 16 32C7.16344 32 0 24.8366 0 16C0 7.16344 7.16344 0 16 0C24.8366 0 32 7.16344 32 16ZM23.2071 12.7071C23.5976 12.3166 23.5976 11.6834 23.2071 11.2929C22.8166 10.9024 22.1834 10.9024 21.7929 11.2929L15.6213 17.4645C14.9347 18.1511 14.4893 18.5935 14.1183 18.8766C13.7704 19.142 13.6077 19.1716 13.5 19.1716C13.3923 19.1716 13.2296 19.142 12.8817 18.8766C12.5107 18.5935 12.0653 18.1511 11.3787 17.4645L9.70711 15.7929C9.31658 15.4024 8.68342 15.4024 8.29289 15.7929C7.90237 16.1834 7.90237 16.8166 8.29289 17.2071L9.96447 18.8787L10.011 18.9252C10.6378 19.5521 11.1779 20.0922 11.6685 20.4666C12.1944 20.8678 12.7792 21.1716 13.5 21.1716C14.2208 21.1716 14.8056 20.8678 15.3315 20.4666C15.8221 20.0922 16.3622 19.5521 16.989 18.9252L17.0355 18.8787L23.2071 12.7071Z" fill="white"/>
</svg>
