<svg width="41" height="41" viewBox="0 0 41 41" fill="none" xmlns="http://www.w3.org/2000/svg">
<g id="Group 1661">
<rect id="Rectangle 20" width="41" height="41" rx="20.5" fill="#0347FF"/>
<path id="Vector" fill-rule="evenodd" clip-rule="evenodd" d="M15.7469 26.6724C16.0311 27.0082 16.3669 27.3182 16.7285 27.5765C17.8393 28.4032 19.2084 28.9198 20.6808 28.9198H28.3012C28.6628 28.9198 28.9986 28.7648 29.2569 28.5323C29.5153 28.2998 29.6444 27.9382 29.6444 27.5765V22.3327C29.6444 20.8861 29.1794 19.5429 28.3787 18.4579V18.5354C28.3787 20.7828 27.4745 22.8235 25.9763 24.2959C24.5039 25.7683 22.4632 26.6983 20.2158 26.6983H15.7469V26.6724ZM27.9395 15.7714C28.4562 16.1589 28.947 16.6239 29.3603 17.1147C30.5227 18.5354 31.2202 20.3178 31.2202 22.281V27.5249C31.2202 28.3257 30.8843 29.049 30.3677 29.5656C29.8511 30.0822 29.1278 30.418 28.327 30.418H20.7066C18.8726 30.418 17.1677 29.7981 15.8244 28.7648C15.0495 28.1707 14.3778 27.4474 13.8612 26.6208H12.6729C11.8722 26.6208 11.1489 26.285 10.6322 25.7683C10.1156 25.2517 9.77979 24.5284 9.77979 23.7276V18.4838C9.77979 16.2364 10.6839 14.1957 12.1821 12.7233C13.6546 11.2509 15.6953 10.3209 17.9426 10.3209H20.3191C22.5665 10.3209 24.6072 11.225 26.0796 12.7233C26.8546 13.6016 27.5262 14.6348 27.9395 15.7714ZM20.2675 11.9225C22.0757 11.9225 23.7289 12.6716 24.9172 13.8599C26.1055 15.0481 26.8546 16.7014 26.8546 18.5096C26.8546 20.3178 26.1055 21.971 24.9172 23.1593C23.7289 24.3476 22.0757 25.0967 20.2675 25.0967H12.6471C12.2855 25.0967 11.9497 24.9417 11.6913 24.7092C11.433 24.4767 11.3039 24.1151 11.3039 23.7534V18.5096C11.3039 16.7014 12.053 15.0481 13.2412 13.8599C14.4295 12.6716 16.0827 11.9225 17.891 11.9225H20.2675ZM19.0792 14.0665C19.4667 14.0665 19.8283 14.144 20.1642 14.299C20.5 14.454 20.8099 14.6348 21.0683 14.8931C21.3266 15.1515 21.5332 15.4356 21.6882 15.7714C21.8432 16.1072 21.9207 16.4689 21.9207 16.8822C21.9207 17.218 21.8691 17.5022 21.7657 17.7863C21.6624 18.0705 21.5332 18.3288 21.3524 18.5613C21.1199 18.8971 20.81 19.1554 20.4483 19.362C20.0867 19.5687 19.6734 19.672 19.2342 19.6979V19.7237C19.2342 19.982 19.1309 20.1887 18.9501 20.3695C18.7692 20.5503 18.5368 20.6536 18.2784 20.6536C18.0201 20.6536 17.8135 20.5503 17.6326 20.3695C17.4518 20.1887 17.3743 19.9562 17.3743 19.7237V18.7679V18.6646C17.3743 18.4321 17.4777 18.2254 17.6585 18.0705C17.8393 17.9155 18.046 17.8121 18.3043 17.8121H19.2342C19.4667 17.7863 19.6734 17.683 19.8283 17.5022C19.9833 17.3213 20.0608 17.1147 20.0608 16.8564C20.0608 16.598 19.9575 16.3656 19.7767 16.1847C19.5959 16.0039 19.3634 15.9006 19.1051 15.9006C18.8467 15.9006 18.6143 16.0039 18.4334 16.1847C18.2526 16.3656 18.1493 16.598 18.1493 16.8564C18.1493 17.1147 18.046 17.3472 17.8651 17.528C17.6843 17.7088 17.4518 17.8121 17.1935 17.8121C16.961 17.8121 16.7544 17.7346 16.5735 17.5796C16.3927 17.4247 16.2894 17.218 16.2894 16.9855C16.2894 16.6239 16.3669 16.2622 16.496 15.9006C16.6252 15.5389 16.8319 15.229 17.0643 14.9706C17.3227 14.6865 17.6068 14.4798 17.9426 14.3248C18.2526 14.144 18.6401 14.0665 19.0792 14.0665ZM19.2084 22.0227C19.2084 22.281 19.1051 22.5135 18.9242 22.6943C18.7434 22.8752 18.5109 22.9785 18.2526 22.9785C17.9943 22.9785 17.7876 22.8752 17.6068 22.6943C17.426 22.5135 17.3485 22.281 17.3485 22.0227C17.3485 21.7644 17.426 21.5577 17.6068 21.3769C17.7876 21.1961 17.9943 21.0928 18.2526 21.0928C18.5109 21.0928 18.7434 21.1961 18.9242 21.3769C19.1051 21.5577 19.2084 21.7902 19.2084 22.0227Z" fill="white"/>
</g>
</svg>
