<svg width="192" height="56" viewBox="0 0 192 56" fill="none" xmlns="http://www.w3.org/2000/svg">
<rect width="192" height="56" rx="14" fill="#0347FF"/>
<path d="M52.352 34.16C51.552 34.16 50.8107 34.016 50.128 33.728C49.4453 33.4293 48.848 33.0187 48.336 32.496C47.8347 31.9733 47.4453 31.3653 47.168 30.672C46.8907 29.9787 46.752 29.2373 46.752 28.448C46.752 27.648 46.8907 26.9013 47.168 26.208C47.4453 25.5147 47.8347 24.912 48.336 24.4C48.848 23.8773 49.44 23.472 50.112 23.184C50.7947 22.8853 51.536 22.736 52.336 22.736C53.2107 22.736 53.9787 22.8853 54.64 23.184C55.3013 23.4827 55.888 23.888 56.4 24.4L55.36 25.44C55.008 25.0453 54.576 24.736 54.064 24.512C53.5627 24.288 52.9867 24.176 52.336 24.176C51.7493 24.176 51.2107 24.2827 50.72 24.496C50.2293 24.6987 49.8027 24.992 49.44 25.376C49.0773 25.76 48.7947 26.2133 48.592 26.736C48.4 27.2587 48.304 27.8293 48.304 28.448C48.304 29.0667 48.4 29.6373 48.592 30.16C48.7947 30.6827 49.0773 31.136 49.44 31.52C49.8027 31.904 50.2293 32.2027 50.72 32.416C51.2107 32.6187 51.7493 32.72 52.336 32.72C53.0293 32.72 53.632 32.608 54.144 32.384C54.656 32.1493 55.088 31.8347 55.44 31.44L56.48 32.464C55.968 32.9973 55.3653 33.4133 54.672 33.712C53.9893 34.0107 53.216 34.16 52.352 34.16ZM61.2936 34.16C60.547 34.16 59.875 33.984 59.2776 33.632C58.6803 33.28 58.2056 32.8053 57.8536 32.208C57.5016 31.6 57.3256 30.9227 57.3256 30.176C57.3256 29.44 57.5016 28.7787 57.8536 28.192C58.2056 27.5947 58.6803 27.12 59.2776 26.768C59.875 26.416 60.547 26.24 61.2936 26.24C62.0296 26.24 62.6963 26.416 63.2936 26.768C63.9016 27.1093 64.3816 27.5787 64.7336 28.176C65.0856 28.7733 65.2616 29.44 65.2616 30.176C65.2616 30.9227 65.0856 31.6 64.7336 32.208C64.3816 32.8053 63.9016 33.28 63.2936 33.632C62.6963 33.984 62.0296 34.16 61.2936 34.16ZM61.2936 32.768C61.7736 32.768 62.2003 32.656 62.5736 32.432C62.947 32.208 63.2403 31.904 63.4536 31.52C63.667 31.1253 63.7736 30.6773 63.7736 30.176C63.7736 29.6853 63.6616 29.248 63.4376 28.864C63.2243 28.48 62.931 28.1813 62.5576 27.968C62.195 27.744 61.7736 27.632 61.2936 27.632C60.8136 27.632 60.387 27.744 60.0136 27.968C59.6403 28.1813 59.347 28.48 59.1336 28.864C58.9203 29.248 58.8136 29.6853 58.8136 30.176C58.8136 30.6773 58.9203 31.1253 59.1336 31.52C59.347 31.904 59.6403 32.208 60.0136 32.432C60.387 32.656 60.8136 32.768 61.2936 32.768ZM72.2601 34V29.568C72.2601 28.992 72.0788 28.5173 71.7161 28.144C71.3535 27.7707 70.8841 27.584 70.3081 27.584C69.9241 27.584 69.5828 27.6693 69.2841 27.84C68.9855 28.0107 68.7508 28.2453 68.5801 28.544C68.4095 28.8427 68.3241 29.184 68.3241 29.568L67.7321 29.232C67.7321 28.656 67.8601 28.144 68.1161 27.696C68.3721 27.248 68.7295 26.896 69.1881 26.64C69.6468 26.3733 70.1641 26.24 70.7401 26.24C71.3161 26.24 71.8228 26.384 72.2601 26.672C72.7081 26.96 73.0601 27.3387 73.3161 27.808C73.5721 28.2667 73.7001 28.7573 73.7001 29.28V34H72.2601ZM66.8841 34V26.4H68.3241V34H66.8841ZM76.644 34V25.024C76.644 24.5227 76.7507 24.08 76.964 23.696C77.188 23.3013 77.4973 22.992 77.892 22.768C78.2867 22.5333 78.74 22.416 79.252 22.416C79.6467 22.416 79.9933 22.4853 80.292 22.624C80.5907 22.752 80.868 22.9333 81.124 23.168L80.18 24.112C80.0413 23.9947 79.8973 23.9093 79.748 23.856C79.5987 23.792 79.4333 23.76 79.252 23.76C78.8787 23.76 78.5907 23.8773 78.388 24.112C78.1853 24.336 78.084 24.64 78.084 25.024V34H76.644ZM74.772 27.712V26.4H81.988V27.712H74.772ZM81.156 34V26.4H82.612V34H81.156ZM81.876 25.6C81.62 25.6 81.4067 25.5147 81.236 25.344C81.0653 25.1627 80.98 24.9387 80.98 24.672C80.98 24.416 81.0653 24.2027 81.236 24.032C81.4067 23.8507 81.62 23.76 81.876 23.76C82.1533 23.76 82.372 23.8507 82.532 24.032C82.7027 24.2027 82.788 24.416 82.788 24.672C82.788 24.9387 82.7027 25.1627 82.532 25.344C82.372 25.5147 82.1533 25.6 81.876 25.6ZM84.7279 34V26.4H86.1679V34H84.7279ZM86.1679 29.664L85.6239 29.424C85.6239 28.4533 85.8479 27.68 86.2959 27.104C86.7439 26.528 87.3892 26.24 88.2319 26.24C88.6159 26.24 88.9625 26.3093 89.2719 26.448C89.5812 26.576 89.8692 26.7947 90.1359 27.104L89.1919 28.08C89.0319 27.9093 88.8559 27.7867 88.6639 27.712C88.4719 27.6373 88.2479 27.6 87.9919 27.6C87.4585 27.6 87.0212 27.7707 86.6799 28.112C86.3385 28.4533 86.1679 28.9707 86.1679 29.664ZM91.181 34V26.4H92.621V34H91.181ZM96.317 34V29.408C96.317 28.8427 96.141 28.4 95.789 28.08C95.4477 27.7493 95.0157 27.584 94.493 27.584C94.141 27.584 93.8263 27.6587 93.549 27.808C93.2717 27.9573 93.0477 28.1653 92.877 28.432C92.7063 28.6987 92.621 29.0187 92.621 29.392L92.029 29.104C92.029 28.528 92.1517 28.0267 92.397 27.6C92.653 27.1733 92.9997 26.8427 93.437 26.608C93.8743 26.3627 94.365 26.24 94.909 26.24C95.4423 26.24 95.9223 26.3573 96.349 26.592C96.7863 26.8267 97.1277 27.1573 97.373 27.584C97.629 28.0107 97.757 28.5173 97.757 29.104V34H96.317ZM101.453 34V29.408C101.453 28.8427 101.277 28.4 100.925 28.08C100.584 27.7493 100.157 27.584 99.645 27.584C99.293 27.584 98.973 27.6587 98.685 27.808C98.4077 27.9573 98.1837 28.1653 98.013 28.432C97.8423 28.6987 97.757 29.0187 97.757 29.392L96.941 29.104C96.973 28.5173 97.1277 28.016 97.405 27.6C97.693 27.1733 98.061 26.8427 98.509 26.608C98.957 26.3627 99.4477 26.24 99.981 26.24C100.536 26.24 101.032 26.3573 101.469 26.592C101.906 26.8267 102.253 27.1573 102.509 27.584C102.776 28.0107 102.909 28.5227 102.909 29.12V34H101.453ZM108.101 34.16C107.407 34.16 106.778 33.9893 106.213 33.648C105.647 33.296 105.199 32.8213 104.868 32.224C104.549 31.6267 104.389 30.9547 104.389 30.208C104.389 29.4613 104.549 28.7893 104.868 28.192C105.199 27.5947 105.642 27.12 106.197 26.768C106.762 26.416 107.397 26.24 108.101 26.24C108.677 26.24 109.189 26.3627 109.637 26.608C110.095 26.8427 110.463 27.1733 110.741 27.6C111.018 28.016 111.173 28.5013 111.205 29.056V31.344C111.173 31.888 111.018 32.3733 110.741 32.8C110.474 33.2267 110.111 33.5627 109.653 33.808C109.205 34.0427 108.687 34.16 108.101 34.16ZM108.341 32.8C109.055 32.8 109.631 32.56 110.069 32.08C110.506 31.5893 110.725 30.9653 110.725 30.208C110.725 29.6853 110.623 29.232 110.421 28.848C110.229 28.4533 109.951 28.1493 109.589 27.936C109.226 27.712 108.805 27.6 108.325 27.6C107.845 27.6 107.418 27.712 107.045 27.936C106.682 28.16 106.394 28.4693 106.181 28.864C105.978 29.248 105.877 29.6907 105.877 30.192C105.877 30.704 105.978 31.1573 106.181 31.552C106.394 31.936 106.687 32.24 107.061 32.464C107.434 32.688 107.861 32.8 108.341 32.8ZM110.629 34V31.952L110.901 30.096L110.629 28.256V26.4H112.085V34H110.629ZM114.181 34V26.4H115.621V34H114.181ZM115.621 29.664L115.077 29.424C115.077 28.4533 115.301 27.68 115.749 27.104C116.197 26.528 116.842 26.24 117.685 26.24C118.069 26.24 118.416 26.3093 118.725 26.448C119.034 26.576 119.322 26.7947 119.589 27.104L118.645 28.08C118.485 27.9093 118.309 27.7867 118.117 27.712C117.925 27.6373 117.701 27.6 117.445 27.6C116.912 27.6 116.474 27.7707 116.133 28.112C115.792 28.4533 115.621 28.9707 115.621 29.664Z" fill="white"/>
<path d="M146.5 24L140.328 30.1716C138.995 31.5049 138.328 32.1716 137.5 32.1716C136.672 32.1716 136.005 31.5049 134.672 30.1716L133 28.5" stroke="white" stroke-width="2" stroke-linecap="round"/>
</svg>
