<svg width="116" height="46" viewBox="0 0 116 46" fill="none" xmlns="http://www.w3.org/2000/svg">
<rect y="2" width="41" height="41" rx="20.5" fill="#0347FF"/>
<path fill-rule="evenodd" clip-rule="evenodd" d="M15.7469 28.6724C16.0311 29.0082 16.3669 29.3182 16.7285 29.5765C17.8393 30.4032 19.2084 30.9198 20.6808 30.9198H28.3012C28.6628 30.9198 28.9986 30.7648 29.2569 30.5323C29.5153 30.2998 29.6444 29.9382 29.6444 29.5765V24.3327C29.6444 22.8861 29.1794 21.5429 28.3787 20.4579V20.5354C28.3787 22.7828 27.4745 24.8235 25.9763 26.2959C24.5039 27.7683 22.4632 28.6983 20.2158 28.6983H15.7469V28.6724ZM27.9395 17.7714C28.4562 18.1589 28.947 18.6239 29.3603 19.1147C30.5227 20.5354 31.2202 22.3178 31.2202 24.281V29.5249C31.2202 30.3257 30.8843 31.049 30.3677 31.5656C29.8511 32.0822 29.1278 32.418 28.327 32.418H20.7066C18.8726 32.418 17.1677 31.7981 15.8244 30.7648C15.0495 30.1707 14.3778 29.4474 13.8612 28.6208H12.6729C11.8722 28.6208 11.1489 28.285 10.6322 27.7683C10.1156 27.2517 9.77979 26.5284 9.77979 25.7276V20.4838C9.77979 18.2364 10.6839 16.1957 12.1821 14.7233C13.6546 13.2509 15.6953 12.3209 17.9426 12.3209H20.3191C22.5665 12.3209 24.6072 13.225 26.0796 14.7233C26.8546 15.6016 27.5262 16.6348 27.9395 17.7714ZM20.2675 13.9225C22.0757 13.9225 23.7289 14.6716 24.9172 15.8599C26.1055 17.0481 26.8546 18.7014 26.8546 20.5096C26.8546 22.3178 26.1055 23.971 24.9172 25.1593C23.7289 26.3476 22.0757 27.0967 20.2675 27.0967H12.6471C12.2855 27.0967 11.9497 26.9417 11.6913 26.7092C11.433 26.4767 11.3039 26.1151 11.3039 25.7534V20.5096C11.3039 18.7014 12.053 17.0481 13.2412 15.8599C14.4295 14.6716 16.0827 13.9225 17.891 13.9225H20.2675ZM19.0792 16.0665C19.4667 16.0665 19.8283 16.144 20.1642 16.299C20.5 16.454 20.8099 16.6348 21.0683 16.8931C21.3266 17.1515 21.5332 17.4356 21.6882 17.7714C21.8432 18.1072 21.9207 18.4689 21.9207 18.8822C21.9207 19.218 21.8691 19.5022 21.7657 19.7863C21.6624 20.0705 21.5332 20.3288 21.3524 20.5613C21.1199 20.8971 20.81 21.1554 20.4483 21.362C20.0867 21.5687 19.6734 21.672 19.2342 21.6979V21.7237C19.2342 21.982 19.1309 22.1887 18.9501 22.3695C18.7692 22.5503 18.5368 22.6536 18.2784 22.6536C18.0201 22.6536 17.8135 22.5503 17.6326 22.3695C17.4518 22.1887 17.3743 21.9562 17.3743 21.7237V20.7679V20.6646C17.3743 20.4321 17.4777 20.2254 17.6585 20.0705C17.8393 19.9155 18.046 19.8121 18.3043 19.8121H19.2342C19.4667 19.7863 19.6734 19.683 19.8283 19.5022C19.9833 19.3213 20.0608 19.1147 20.0608 18.8564C20.0608 18.598 19.9575 18.3656 19.7767 18.1847C19.5959 18.0039 19.3634 17.9006 19.1051 17.9006C18.8467 17.9006 18.6143 18.0039 18.4334 18.1847C18.2526 18.3656 18.1493 18.598 18.1493 18.8564C18.1493 19.1147 18.046 19.3472 17.8651 19.528C17.6843 19.7088 17.4518 19.8121 17.1935 19.8121C16.961 19.8121 16.7544 19.7346 16.5735 19.5796C16.3927 19.4247 16.2894 19.218 16.2894 18.9855C16.2894 18.6239 16.3669 18.2622 16.496 17.9006C16.6252 17.5389 16.8319 17.229 17.0643 16.9706C17.3227 16.6865 17.6068 16.4798 17.9426 16.3248C18.2526 16.144 18.6401 16.0665 19.0792 16.0665ZM19.2084 24.0227C19.2084 24.281 19.1051 24.5135 18.9242 24.6943C18.7434 24.8752 18.5109 24.9785 18.2526 24.9785C17.9943 24.9785 17.7876 24.8752 17.6068 24.6943C17.426 24.5135 17.3485 24.281 17.3485 24.0227C17.3485 23.7644 17.426 23.5577 17.6068 23.3769C17.7876 23.1961 17.9943 23.0928 18.2526 23.0928C18.5109 23.0928 18.7434 23.1961 18.9242 23.3769C19.1051 23.5577 19.2084 23.7902 19.2084 24.0227Z" fill="white"/>
<path d="M53.6025 11.7822L46.6445 2.87598C46.4297 2.6123 46.3223 2.3291 46.3223 2.02637C46.3223 1.87012 46.3516 1.71387 46.4102 1.55762C46.4785 1.3916 46.5713 1.24512 46.6885 1.11816C46.8057 0.991211 46.9424 0.888672 47.0986 0.810547C47.2549 0.732422 47.4307 0.693359 47.626 0.693359C47.8115 0.693359 47.9873 0.732422 48.1533 0.810547C48.3291 0.878906 48.4805 0.991211 48.6074 1.14746L54.8916 9.21875L61.1611 1.11816C61.4346 0.825195 61.7568 0.678711 62.1279 0.678711C62.2939 0.678711 62.4551 0.717773 62.6113 0.795898C62.7676 0.864258 62.9043 0.961914 63.0215 1.08887C63.1387 1.20605 63.2314 1.34277 63.2998 1.49902C63.3779 1.65527 63.417 1.81641 63.417 1.98242C63.417 2.28516 63.3096 2.57813 63.0947 2.86133L56.1953 11.7676V18.7256C56.1953 19.0869 56.0684 19.3896 55.8145 19.6338C55.5703 19.8779 55.2676 20 54.9062 20C54.5449 20 54.2373 19.8779 53.9834 19.6338C53.7295 19.3896 53.6025 19.0869 53.6025 18.7256V11.7822ZM63.9004 14.1992C64.0078 14.6973 64.1934 15.1611 64.457 15.5908C64.7207 16.0107 65.043 16.377 65.4238 16.6895C65.8047 17.002 66.2295 17.2461 66.6982 17.4219C67.1768 17.5977 67.6797 17.6855 68.207 17.6855C68.7148 17.6855 69.1348 17.6416 69.4668 17.5537C69.7988 17.4561 70.1309 17.3096 70.4629 17.1143C70.7363 16.958 70.9951 16.8799 71.2393 16.8799C71.415 16.8799 71.5762 16.9189 71.7227 16.9971C71.8789 17.0654 72.0156 17.1631 72.1328 17.29C72.25 17.4072 72.3428 17.5488 72.4111 17.7148C72.4795 17.8809 72.5137 18.0518 72.5137 18.2275C72.5137 18.54 72.3965 18.8184 72.1621 19.0625C71.9277 19.2969 71.6104 19.4971 71.21 19.6631C70.8193 19.8291 70.3604 19.9561 69.833 20.0439C69.3154 20.1318 68.7734 20.1758 68.207 20.1758C67.2207 20.1758 66.2881 19.9902 65.4092 19.6191C64.54 19.2383 63.7783 18.7256 63.124 18.0811C62.4795 17.4365 61.9668 16.6797 61.5859 15.8105C61.2148 14.9414 61.0293 14.0137 61.0293 13.0273C61.0293 12.0312 61.2148 11.0986 61.5859 10.2295C61.9668 9.36035 62.4795 8.60352 63.124 7.95898C63.7783 7.31445 64.54 6.80664 65.4092 6.43555C66.2881 6.05469 67.2207 5.86426 68.207 5.86426C69.1836 5.86426 70.1064 6.0498 70.9756 6.4209C71.8447 6.79199 72.6016 7.2998 73.2461 7.94434C73.9004 8.58887 74.418 9.3457 74.7988 10.2148C75.1797 11.0742 75.375 11.9922 75.3848 12.9688C75.3848 13.3203 75.2676 13.6133 75.0332 13.8477C74.7988 14.082 74.4961 14.1992 74.125 14.1992H63.9004ZM72.7334 12.0312C72.6455 11.5039 72.4648 11.0156 72.1914 10.5664C71.9277 10.1172 71.5957 9.72656 71.1953 9.39453C70.8047 9.0625 70.3555 8.80371 69.8477 8.61816C69.3496 8.43262 68.8174 8.33984 68.251 8.33984C67.6748 8.33984 67.1377 8.4375 66.6396 8.63281C66.1416 8.81836 65.6973 9.08203 65.3066 9.42383C64.916 9.75586 64.5938 10.1465 64.3398 10.5957C64.0859 11.0449 63.915 11.5234 63.8271 12.0312H72.7334ZM83.8223 20.1758C82.8359 20.1758 81.9131 19.9902 81.0537 19.6191C80.1943 19.2383 79.4424 18.7256 78.7979 18.0811C78.1631 17.4365 77.6602 16.6797 77.2891 15.8105C76.918 14.9414 76.7324 14.0137 76.7324 13.0273C76.7324 12.041 76.918 11.1133 77.2891 10.2441C77.6602 9.375 78.1631 8.61816 78.7979 7.97363C79.4424 7.31934 80.1943 6.80664 81.0537 6.43555C81.9131 6.05469 82.8359 5.86426 83.8223 5.86426C84.8086 5.86426 85.7266 6.0498 86.5762 6.4209C87.4355 6.79199 88.1826 7.2998 88.8174 7.94434C89.4521 8.5791 89.9551 9.32617 90.3262 10.1855C90.6973 11.0449 90.8926 11.9629 90.9121 12.9395V13.0273V18.7695C90.9121 19.1406 90.7852 19.458 90.5312 19.7217C90.2773 19.9756 89.9648 20.1025 89.5938 20.1025C89.2227 20.1025 88.9199 19.9756 88.6855 19.7217C88.4512 19.458 88.334 19.1406 88.334 18.7695L88.3193 18.5645C87.7041 19.0723 87.0156 19.4678 86.2539 19.751C85.4922 20.0342 84.6816 20.1758 83.8223 20.1758ZM83.8223 17.583C84.4668 17.583 85.0625 17.4658 85.6094 17.2314C86.1562 16.9873 86.6299 16.6602 87.0303 16.25C87.4404 15.8301 87.7578 15.3467 87.9824 14.7998C88.2168 14.2432 88.334 13.6523 88.334 13.0273C88.334 12.4023 88.2168 11.8164 87.9824 11.2695C87.7578 10.7129 87.4404 10.2295 87.0303 9.81934C86.6299 9.40918 86.1562 9.08691 85.6094 8.85254C85.0625 8.6084 84.4668 8.48633 83.8223 8.48633C83.1875 8.48633 82.5967 8.6084 82.0498 8.85254C81.5029 9.08691 81.0293 9.40918 80.6289 9.81934C80.2285 10.2295 79.9111 10.7129 79.6768 11.2695C79.4424 11.8164 79.3252 12.4023 79.3252 13.0273C79.3252 13.6523 79.4424 14.2432 79.6768 14.7998C79.9111 15.3467 80.2285 15.8301 80.6289 16.25C81.0293 16.6602 81.5029 16.9873 82.0498 17.2314C82.5967 17.4658 83.1875 17.583 83.8223 17.583ZM104.799 12.8369V12.7783C104.799 12.1826 104.706 11.6211 104.521 11.0938C104.335 10.5664 104.071 10.1074 103.729 9.7168C103.388 9.31641 102.973 9.00391 102.484 8.7793C102.006 8.55469 101.469 8.44238 100.873 8.44238C100.277 8.44238 99.7012 8.5498 99.1445 8.76465C98.5977 8.97949 98.1094 9.27734 97.6797 9.6582C97.25 10.0391 96.9033 10.4883 96.6396 11.0059C96.3857 11.5234 96.2588 12.0801 96.2588 12.6758V18.7109C96.2588 19.0723 96.1318 19.3799 95.8779 19.6338C95.6338 19.8779 95.3311 20 94.9697 20C94.5986 20 94.2861 19.8779 94.0322 19.6338C93.7881 19.3799 93.666 19.0723 93.666 18.7109V2.02637C93.666 1.84082 93.7002 1.66992 93.7686 1.51367C93.8369 1.34766 93.9297 1.20605 94.0469 1.08887C94.1641 0.97168 94.3008 0.878906 94.457 0.810547C94.623 0.742187 94.7939 0.708008 94.9697 0.708008C95.1455 0.708008 95.3115 0.742187 95.4678 0.810547C95.624 0.878906 95.7607 0.97168 95.8779 1.08887C95.9951 1.20605 96.0879 1.34766 96.1562 1.51367C96.2246 1.66992 96.2588 1.84082 96.2588 2.02637V8.14941C96.8447 7.44629 97.5283 6.88965 98.3096 6.47949C99.1006 6.06934 99.9551 5.86426 100.873 5.86426C101.82 5.86426 102.694 6.04492 103.495 6.40625C104.296 6.76758 104.979 7.26074 105.546 7.88574C106.122 8.51074 106.571 9.24316 106.894 10.083C107.216 10.9229 107.377 11.8164 107.377 12.7637V12.8369V18.7402C107.377 19.1113 107.25 19.4189 106.996 19.6631C106.742 19.8975 106.435 20.0146 106.073 20.0146C105.722 20.0146 105.419 19.8975 105.165 19.6631C104.921 19.4189 104.799 19.1113 104.799 18.7402V12.8369ZM110.438 18.7842C110.438 18.5693 110.478 18.3643 110.556 18.1689C110.644 17.9736 110.761 17.8027 110.907 17.6562C111.054 17.5098 111.22 17.3975 111.405 17.3193C111.601 17.2314 111.806 17.1875 112.021 17.1875C112.235 17.1875 112.436 17.2314 112.621 17.3193C112.816 17.3975 112.982 17.5098 113.119 17.6562C113.266 17.8027 113.378 17.9736 113.456 18.1689C113.544 18.3643 113.588 18.5693 113.588 18.7842C113.588 18.999 113.544 19.2041 113.456 19.3994C113.378 19.585 113.266 19.751 113.119 19.8975C112.982 20.0342 112.816 20.1416 112.621 20.2197C112.436 20.3076 112.235 20.3516 112.021 20.3516C111.806 20.3516 111.601 20.3076 111.405 20.2197C111.22 20.1416 111.054 20.0342 110.907 19.8975C110.761 19.751 110.644 19.585 110.556 19.3994C110.478 19.2041 110.438 18.999 110.438 18.7842ZM56.3711 42.1758C55.4629 42.1758 54.5938 42.0586 53.7637 41.8242C52.9336 41.5898 52.1572 41.2627 51.4346 40.8428C50.7119 40.4229 50.0527 39.915 49.457 39.3193C48.8711 38.7236 48.3682 38.0693 47.9482 37.3564C47.5283 36.6338 47.2012 35.8574 46.9668 35.0273C46.7422 34.1973 46.6299 33.333 46.6299 32.4346C46.6299 31.5361 46.7422 30.6719 46.9668 29.8418C47.2012 29.002 47.5283 28.2207 47.9482 27.498C48.3682 26.7754 48.8711 26.1162 49.457 25.5205C50.0527 24.9248 50.7119 24.417 51.4346 23.9971C52.1572 23.5771 52.9336 23.25 53.7637 23.0156C54.5938 22.7812 55.4629 22.6641 56.3711 22.6641C57.2695 22.6641 58.1338 22.7812 58.9639 23.0156C59.7939 23.25 60.5703 23.5771 61.293 23.9971C62.0254 24.417 62.6846 24.9248 63.2705 25.5205C63.8662 26.1162 64.374 26.7754 64.7939 27.498C65.2236 28.2207 65.5557 29.002 65.79 29.8418C66.0244 30.6719 66.1416 31.5361 66.1416 32.4346C66.1416 33.167 66.0635 33.8799 65.9072 34.5732C65.751 35.2568 65.5264 35.9111 65.2334 36.5361C64.9404 37.1611 64.5889 37.7471 64.1787 38.2939C63.7686 38.8311 63.3096 39.3242 62.8018 39.7734C62.9189 39.9395 63.0557 40.0811 63.2119 40.1982C63.3682 40.3057 63.5439 40.3594 63.7393 40.3594C64.1396 40.3594 64.4473 40.2666 64.6621 40.0811C64.877 39.8857 65.0283 39.6416 65.1162 39.3486C65.1943 39.29 65.3555 39.2607 65.5996 39.2607C65.7461 39.2607 65.8926 39.29 66.0391 39.3486C66.1953 39.3975 66.332 39.4756 66.4492 39.583C66.5762 39.6807 66.6787 39.8076 66.7568 39.9639C66.835 40.1201 66.874 40.3057 66.874 40.5205C66.874 40.9893 66.7617 41.3848 66.5371 41.707C66.3125 42.0293 66.0391 42.2881 65.7168 42.4834C65.3945 42.6885 65.0576 42.8301 64.7061 42.9082C64.3545 42.9961 64.0566 43.04 63.8125 43.04C63.1289 43.04 62.5137 42.8691 61.9668 42.5273C61.4199 42.1855 60.9658 41.7461 60.6045 41.209C59.96 41.5215 59.2812 41.7607 58.5684 41.9268C57.8652 42.0928 57.1328 42.1758 56.3711 42.1758ZM57.8652 34.7197C58.2949 34.7197 58.7051 34.7832 59.0957 34.9102C59.4863 35.0273 59.8477 35.1982 60.1797 35.4229C60.5117 35.6475 60.8047 35.916 61.0586 36.2285C61.3125 36.5312 61.5225 36.8682 61.6885 37.2393C62.2744 36.5947 62.7285 35.8721 63.0508 35.0713C63.373 34.2607 63.5342 33.3818 63.5342 32.4346C63.5342 31.4385 63.3438 30.5059 62.9629 29.6367C62.5918 28.7676 62.084 28.0107 61.4395 27.3662C60.7949 26.7217 60.0381 26.2139 59.1689 25.8428C58.2998 25.4619 57.3672 25.2715 56.3711 25.2715C55.375 25.2715 54.4424 25.4619 53.5732 25.8428C52.7139 26.2139 51.9619 26.7217 51.3174 27.3662C50.6729 28.0107 50.165 28.7676 49.7939 29.6367C49.4229 30.5059 49.2373 31.4385 49.2373 32.4346C49.2373 33.1963 49.3447 33.9238 49.5596 34.6172C49.7842 35.3008 50.0918 35.9307 50.4824 36.5068C50.8828 37.083 51.3564 37.5908 51.9033 38.0303C52.46 38.4697 53.0703 38.8213 53.7344 39.085V38.8652C53.7344 38.2891 53.8418 37.752 54.0566 37.2539C54.2812 36.7461 54.5791 36.3066 54.9502 35.9355C55.3213 35.5547 55.7559 35.2568 56.2539 35.042C56.7617 34.8271 57.2988 34.7197 57.8652 34.7197ZM56.3711 39.583C56.957 39.583 57.5137 39.5195 58.041 39.3926C58.5781 39.2656 59.0859 39.0801 59.5645 38.8359L59.4326 38.499H59.4473C59.3105 38.167 59.0713 37.8936 58.7295 37.6787C58.3975 37.4639 58.0264 37.3564 57.6162 37.3564C57.0596 37.3564 56.6055 37.5127 56.2539 37.8252C55.9121 38.1377 55.7412 38.543 55.7412 39.041C55.7412 39.2168 55.7705 39.3926 55.8291 39.5684C55.917 39.5781 56.0049 39.583 56.0928 39.583C56.1807 39.583 56.2734 39.583 56.3711 39.583ZM67.9873 29.1533C67.9873 28.792 68.1094 28.4893 68.3535 28.2451C68.6074 27.9912 68.915 27.8643 69.2764 27.8643C69.6279 27.8643 69.9307 27.9912 70.1846 28.2451C70.4385 28.4893 70.5654 28.792 70.5654 29.1533V35.3643C70.5752 35.9502 70.6875 36.502 70.9023 37.0195C71.127 37.5273 71.4248 37.9717 71.7959 38.3525C72.1768 38.7334 72.6211 39.0361 73.1289 39.2607C73.6367 39.4756 74.1885 39.583 74.7842 39.583C75.3799 39.583 75.917 39.4707 76.3955 39.2461C76.8838 39.0215 77.2988 38.7139 77.6406 38.3232C77.9824 37.9326 78.2461 37.4785 78.4316 36.9609C78.627 36.4336 78.7246 35.8721 78.7246 35.2764V29.1533C78.7246 28.9775 78.7588 28.8115 78.8271 28.6553C78.9053 28.499 79.0029 28.3623 79.1201 28.2451C79.2373 28.1279 79.374 28.0352 79.5303 27.9668C79.6963 27.8984 79.8672 27.8643 80.043 27.8643C80.4141 27.8643 80.7168 27.9912 80.9512 28.2451C81.1953 28.4893 81.3174 28.792 81.3174 29.1533V35.2178V35.291C81.3174 36.2383 81.1514 37.1318 80.8193 37.9717C80.4971 38.8018 80.0479 39.5293 79.4717 40.1543C78.8955 40.7793 78.207 41.2725 77.4062 41.6338C76.6055 41.9951 75.7314 42.1758 74.7842 42.1758C73.8271 42.1758 72.9336 41.9951 72.1035 41.6338C71.2832 41.2725 70.5654 40.7793 69.9502 40.1543C69.3447 39.5293 68.8662 38.8018 68.5146 37.9717C68.1631 37.1318 67.9873 36.2383 67.9873 35.291V29.1533ZM83.9541 24.6709C83.9541 24.4658 83.9932 24.2754 84.0713 24.0996C84.1494 23.9238 84.252 23.7725 84.3789 23.6455C84.5156 23.5088 84.6719 23.4014 84.8477 23.3232C85.0332 23.2451 85.2285 23.2061 85.4336 23.2061C85.6387 23.2061 85.8291 23.2451 86.0049 23.3232C86.1807 23.4014 86.3369 23.5088 86.4736 23.6455C86.6104 23.7725 86.7178 23.9238 86.7959 24.0996C86.874 24.2754 86.9131 24.4658 86.9131 24.6709C86.9131 24.876 86.874 25.0664 86.7959 25.2422C86.7178 25.418 86.6104 25.5742 86.4736 25.7109C86.3369 25.8379 86.1807 25.9404 86.0049 26.0186C85.8291 26.0967 85.6387 26.1357 85.4336 26.1357C85.2285 26.1357 85.0332 26.0967 84.8477 26.0186C84.6719 25.9404 84.5156 25.8379 84.3789 25.7109C84.252 25.5742 84.1494 25.418 84.0713 25.2422C83.9932 25.0664 83.9541 24.876 83.9541 24.6709ZM84.1152 29.168C84.1152 28.9922 84.1494 28.8262 84.2178 28.6699C84.2861 28.5039 84.3789 28.3623 84.4961 28.2451C84.623 28.1279 84.7646 28.0352 84.9209 27.9668C85.0869 27.8984 85.2627 27.8643 85.4482 27.8643C85.8096 27.8643 86.1074 27.9912 86.3418 28.2451C86.5859 28.499 86.708 28.8066 86.708 29.168V40.8135C86.708 41.1748 86.5811 41.4824 86.3271 41.7363C86.083 41.9805 85.7852 42.1025 85.4336 42.1025C85.0723 42.1025 84.7598 41.9805 84.4961 41.7363C84.2422 41.4824 84.1152 41.1748 84.1152 40.8135V29.168ZM100.961 27.8643C101.088 27.8643 101.225 27.8936 101.371 27.9521C101.518 28.0107 101.654 28.0938 101.781 28.2012C101.908 28.3086 102.011 28.4404 102.089 28.5967C102.177 28.7432 102.226 28.9141 102.235 29.1094V29.2266C102.226 29.4023 102.182 29.5684 102.104 29.7246C102.025 29.8809 101.923 30.0127 101.796 30.1201L92.9043 39.4805H101.312C101.684 39.4805 101.996 39.5977 102.25 39.832C102.504 40.0664 102.631 40.3594 102.631 40.7109C102.631 40.8867 102.597 41.0527 102.528 41.209C102.46 41.3652 102.367 41.502 102.25 41.6191C102.133 41.7363 101.991 41.8291 101.825 41.8975C101.669 41.9658 101.498 42 101.312 42H90.1943C90.0186 42 89.8477 41.9658 89.6816 41.8975C89.5254 41.8291 89.3887 41.7363 89.2715 41.6191C89.1543 41.502 89.0615 41.3652 88.9932 41.209C88.9248 41.0527 88.8906 40.8867 88.8906 40.7109C88.8809 40.4082 89.0127 40.1104 89.2861 39.8174L98.1777 30.4277H90.3994C90.0381 30.4277 89.7305 30.3057 89.4766 30.0615C89.2324 29.8076 89.1104 29.5 89.1104 29.1387C89.1104 28.7773 89.2324 28.4746 89.4766 28.2305C89.7305 27.9863 90.0381 27.8643 90.3994 27.8643H100.961Z" fill="black"/>
</svg>
