<svg width="68" height="44" viewBox="0 0 68 44" fill="none" xmlns="http://www.w3.org/2000/svg">
<path d="M7.60254 11.7822L0.644531 2.87598C0.429688 2.6123 0.322266 2.3291 0.322266 2.02637C0.322266 1.87012 0.351562 1.71387 0.410156 1.55762C0.478516 1.3916 0.571289 1.24512 0.688477 1.11816C0.805664 0.991211 0.942383 0.888672 1.09863 0.810547C1.25488 0.732422 1.43066 0.693359 1.62598 0.693359C1.81152 0.693359 1.9873 0.732422 2.15332 0.810547C2.3291 0.878906 2.48047 0.991211 2.60742 1.14746L8.8916 9.21875L15.1611 1.11816C15.4346 0.825195 15.7568 0.678711 16.1279 0.678711C16.2939 0.678711 16.4551 0.717773 16.6113 0.795898C16.7676 0.864258 16.9043 0.961914 17.0215 1.08887C17.1387 1.20605 17.2314 1.34277 17.2998 1.49902C17.3779 1.65527 17.417 1.81641 17.417 1.98242C17.417 2.28516 17.3096 2.57813 17.0947 2.86133L10.1953 11.7676V18.7256C10.1953 19.0869 10.0684 19.3896 9.81445 19.6338C9.57031 19.8779 9.26758 20 8.90625 20C8.54492 20 8.2373 19.8779 7.9834 19.6338C7.72949 19.3896 7.60254 19.0869 7.60254 18.7256V11.7822ZM17.9004 14.1992C18.0078 14.6973 18.1934 15.1611 18.457 15.5908C18.7207 16.0107 19.043 16.377 19.4238 16.6895C19.8047 17.002 20.2295 17.2461 20.6982 17.4219C21.1768 17.5977 21.6797 17.6855 22.207 17.6855C22.7148 17.6855 23.1348 17.6416 23.4668 17.5537C23.7988 17.4561 24.1309 17.3096 24.4629 17.1143C24.7363 16.958 24.9951 16.8799 25.2393 16.8799C25.415 16.8799 25.5762 16.9189 25.7227 16.9971C25.8789 17.0654 26.0156 17.1631 26.1328 17.29C26.25 17.4072 26.3428 17.5488 26.4111 17.7148C26.4795 17.8809 26.5137 18.0518 26.5137 18.2275C26.5137 18.54 26.3965 18.8184 26.1621 19.0625C25.9277 19.2969 25.6104 19.4971 25.21 19.6631C24.8193 19.8291 24.3604 19.9561 23.833 20.0439C23.3154 20.1318 22.7734 20.1758 22.207 20.1758C21.2207 20.1758 20.2881 19.9902 19.4092 19.6191C18.54 19.2383 17.7783 18.7256 17.124 18.0811C16.4795 17.4365 15.9668 16.6797 15.5859 15.8105C15.2148 14.9414 15.0293 14.0137 15.0293 13.0273C15.0293 12.0312 15.2148 11.0986 15.5859 10.2295C15.9668 9.36035 16.4795 8.60352 17.124 7.95898C17.7783 7.31445 18.54 6.80664 19.4092 6.43555C20.2881 6.05469 21.2207 5.86426 22.207 5.86426C23.1836 5.86426 24.1064 6.0498 24.9756 6.4209C25.8447 6.79199 26.6016 7.2998 27.2461 7.94434C27.9004 8.58887 28.418 9.3457 28.7988 10.2148C29.1797 11.0742 29.375 11.9922 29.3848 12.9688C29.3848 13.3203 29.2676 13.6133 29.0332 13.8477C28.7988 14.082 28.4961 14.1992 28.125 14.1992H17.9004ZM26.7334 12.0312C26.6455 11.5039 26.4648 11.0156 26.1914 10.5664C25.9277 10.1172 25.5957 9.72656 25.1953 9.39453C24.8047 9.0625 24.3555 8.80371 23.8477 8.61816C23.3496 8.43262 22.8174 8.33984 22.251 8.33984C21.6748 8.33984 21.1377 8.4375 20.6396 8.63281C20.1416 8.81836 19.6973 9.08203 19.3066 9.42383C18.916 9.75586 18.5938 10.1465 18.3398 10.5957C18.0859 11.0449 17.915 11.5234 17.8271 12.0312H26.7334ZM37.8223 20.1758C36.8359 20.1758 35.9131 19.9902 35.0537 19.6191C34.1943 19.2383 33.4424 18.7256 32.7979 18.0811C32.1631 17.4365 31.6602 16.6797 31.2891 15.8105C30.918 14.9414 30.7324 14.0137 30.7324 13.0273C30.7324 12.041 30.918 11.1133 31.2891 10.2441C31.6602 9.375 32.1631 8.61816 32.7979 7.97363C33.4424 7.31934 34.1943 6.80664 35.0537 6.43555C35.9131 6.05469 36.8359 5.86426 37.8223 5.86426C38.8086 5.86426 39.7266 6.0498 40.5762 6.4209C41.4355 6.79199 42.1826 7.2998 42.8174 7.94434C43.4521 8.5791 43.9551 9.32617 44.3262 10.1855C44.6973 11.0449 44.8926 11.9629 44.9121 12.9395V13.0273V18.7695C44.9121 19.1406 44.7852 19.458 44.5312 19.7217C44.2773 19.9756 43.9648 20.1025 43.5938 20.1025C43.2227 20.1025 42.9199 19.9756 42.6855 19.7217C42.4512 19.458 42.334 19.1406 42.334 18.7695L42.3193 18.5645C41.7041 19.0723 41.0156 19.4678 40.2539 19.751C39.4922 20.0342 38.6816 20.1758 37.8223 20.1758ZM37.8223 17.583C38.4668 17.583 39.0625 17.4658 39.6094 17.2314C40.1562 16.9873 40.6299 16.6602 41.0303 16.25C41.4404 15.8301 41.7578 15.3467 41.9824 14.7998C42.2168 14.2432 42.334 13.6523 42.334 13.0273C42.334 12.4023 42.2168 11.8164 41.9824 11.2695C41.7578 10.7129 41.4404 10.2295 41.0303 9.81934C40.6299 9.40918 40.1562 9.08691 39.6094 8.85254C39.0625 8.6084 38.4668 8.48633 37.8223 8.48633C37.1875 8.48633 36.5967 8.6084 36.0498 8.85254C35.5029 9.08691 35.0293 9.40918 34.6289 9.81934C34.2285 10.2295 33.9111 10.7129 33.6768 11.2695C33.4424 11.8164 33.3252 12.4023 33.3252 13.0273C33.3252 13.6523 33.4424 14.2432 33.6768 14.7998C33.9111 15.3467 34.2285 15.8301 34.6289 16.25C35.0293 16.6602 35.5029 16.9873 36.0498 17.2314C36.5967 17.4658 37.1875 17.583 37.8223 17.583ZM58.7988 12.8369V12.7783C58.7988 12.1826 58.7061 11.6211 58.5205 11.0938C58.335 10.5664 58.0713 10.1074 57.7295 9.7168C57.3877 9.31641 56.9727 9.00391 56.4844 8.7793C56.0059 8.55469 55.4688 8.44238 54.873 8.44238C54.2773 8.44238 53.7012 8.5498 53.1445 8.76465C52.5977 8.97949 52.1094 9.27734 51.6797 9.6582C51.25 10.0391 50.9033 10.4883 50.6396 11.0059C50.3857 11.5234 50.2588 12.0801 50.2588 12.6758V18.7109C50.2588 19.0723 50.1318 19.3799 49.8779 19.6338C49.6338 19.8779 49.3311 20 48.9697 20C48.5986 20 48.2861 19.8779 48.0322 19.6338C47.7881 19.3799 47.666 19.0723 47.666 18.7109V2.02637C47.666 1.84082 47.7002 1.66992 47.7686 1.51367C47.8369 1.34766 47.9297 1.20605 48.0469 1.08887C48.1641 0.97168 48.3008 0.878906 48.457 0.810547C48.623 0.742187 48.7939 0.708008 48.9697 0.708008C49.1455 0.708008 49.3115 0.742187 49.4678 0.810547C49.624 0.878906 49.7607 0.97168 49.8779 1.08887C49.9951 1.20605 50.0879 1.34766 50.1562 1.51367C50.2246 1.66992 50.2588 1.84082 50.2588 2.02637V8.14941C50.8447 7.44629 51.5283 6.88965 52.3096 6.47949C53.1006 6.06934 53.9551 5.86426 54.873 5.86426C55.8203 5.86426 56.6943 6.04492 57.4951 6.40625C58.2959 6.76758 58.9795 7.26074 59.5459 7.88574C60.1221 8.51074 60.5713 9.24316 60.8936 10.083C61.2158 10.9229 61.377 11.8164 61.377 12.7637V12.8369V18.7402C61.377 19.1113 61.25 19.4189 60.9961 19.6631C60.7422 19.8975 60.4346 20.0146 60.0732 20.0146C59.7217 20.0146 59.4189 19.8975 59.165 19.6631C58.9209 19.4189 58.7988 19.1113 58.7988 18.7402V12.8369ZM64.4385 18.7842C64.4385 18.5693 64.4775 18.3643 64.5557 18.1689C64.6436 17.9736 64.7607 17.8027 64.9072 17.6562C65.0537 17.5098 65.2197 17.3975 65.4053 17.3193C65.6006 17.2314 65.8057 17.1875 66.0205 17.1875C66.2354 17.1875 66.4355 17.2314 66.6211 17.3193C66.8164 17.3975 66.9824 17.5098 67.1191 17.6562C67.2656 17.8027 67.3779 17.9736 67.4561 18.1689C67.5439 18.3643 67.5879 18.5693 67.5879 18.7842C67.5879 18.999 67.5439 19.2041 67.4561 19.3994C67.3779 19.585 67.2656 19.751 67.1191 19.8975C66.9824 20.0342 66.8164 20.1416 66.6211 20.2197C66.4355 20.3076 66.2354 20.3516 66.0205 20.3516C65.8057 20.3516 65.6006 20.3076 65.4053 20.2197C65.2197 20.1416 65.0537 20.0342 64.9072 19.8975C64.7607 19.751 64.6436 19.585 64.5557 19.3994C64.4775 19.2041 64.4385 18.999 64.4385 18.7842ZM10.3711 42.1758C9.46289 42.1758 8.59375 42.0586 7.76367 41.8242C6.93359 41.5898 6.15723 41.2627 5.43457 40.8428C4.71191 40.4229 4.05273 39.915 3.45703 39.3193C2.87109 38.7236 2.36816 38.0693 1.94824 37.3564C1.52832 36.6338 1.20117 35.8574 0.966797 35.0273C0.742188 34.1973 0.629883 33.333 0.629883 32.4346C0.629883 31.5361 0.742188 30.6719 0.966797 29.8418C1.20117 29.002 1.52832 28.2207 1.94824 27.498C2.36816 26.7754 2.87109 26.1162 3.45703 25.5205C4.05273 24.9248 4.71191 24.417 5.43457 23.9971C6.15723 23.5771 6.93359 23.25 7.76367 23.0156C8.59375 22.7812 9.46289 22.6641 10.3711 22.6641C11.2695 22.6641 12.1338 22.7812 12.9639 23.0156C13.7939 23.25 14.5703 23.5771 15.293 23.9971C16.0254 24.417 16.6846 24.9248 17.2705 25.5205C17.8662 26.1162 18.374 26.7754 18.7939 27.498C19.2236 28.2207 19.5557 29.002 19.79 29.8418C20.0244 30.6719 20.1416 31.5361 20.1416 32.4346C20.1416 33.167 20.0635 33.8799 19.9072 34.5732C19.751 35.2568 19.5264 35.9111 19.2334 36.5361C18.9404 37.1611 18.5889 37.7471 18.1787 38.2939C17.7686 38.8311 17.3096 39.3242 16.8018 39.7734C16.9189 39.9395 17.0557 40.0811 17.2119 40.1982C17.3682 40.3057 17.5439 40.3594 17.7393 40.3594C18.1396 40.3594 18.4473 40.2666 18.6621 40.0811C18.877 39.8857 19.0283 39.6416 19.1162 39.3486C19.1943 39.29 19.3555 39.2607 19.5996 39.2607C19.7461 39.2607 19.8926 39.29 20.0391 39.3486C20.1953 39.3975 20.332 39.4756 20.4492 39.583C20.5762 39.6807 20.6787 39.8076 20.7568 39.9639C20.835 40.1201 20.874 40.3057 20.874 40.5205C20.874 40.9893 20.7617 41.3848 20.5371 41.707C20.3125 42.0293 20.0391 42.2881 19.7168 42.4834C19.3945 42.6885 19.0576 42.8301 18.7061 42.9082C18.3545 42.9961 18.0566 43.04 17.8125 43.04C17.1289 43.04 16.5137 42.8691 15.9668 42.5273C15.4199 42.1855 14.9658 41.7461 14.6045 41.209C13.96 41.5215 13.2812 41.7607 12.5684 41.9268C11.8652 42.0928 11.1328 42.1758 10.3711 42.1758ZM11.8652 34.7197C12.2949 34.7197 12.7051 34.7832 13.0957 34.9102C13.4863 35.0273 13.8477 35.1982 14.1797 35.4229C14.5117 35.6475 14.8047 35.916 15.0586 36.2285C15.3125 36.5312 15.5225 36.8682 15.6885 37.2393C16.2744 36.5947 16.7285 35.8721 17.0508 35.0713C17.373 34.2607 17.5342 33.3818 17.5342 32.4346C17.5342 31.4385 17.3438 30.5059 16.9629 29.6367C16.5918 28.7676 16.084 28.0107 15.4395 27.3662C14.7949 26.7217 14.0381 26.2139 13.1689 25.8428C12.2998 25.4619 11.3672 25.2715 10.3711 25.2715C9.375 25.2715 8.44238 25.4619 7.57324 25.8428C6.71387 26.2139 5.96191 26.7217 5.31738 27.3662C4.67285 28.0107 4.16504 28.7676 3.79395 29.6367C3.42285 30.5059 3.2373 31.4385 3.2373 32.4346C3.2373 33.1963 3.34473 33.9238 3.55957 34.6172C3.78418 35.3008 4.0918 35.9307 4.48242 36.5068C4.88281 37.083 5.35645 37.5908 5.90332 38.0303C6.45996 38.4697 7.07031 38.8213 7.73438 39.085V38.8652C7.73438 38.2891 7.8418 37.752 8.05664 37.2539C8.28125 36.7461 8.5791 36.3066 8.9502 35.9355C9.32129 35.5547 9.75586 35.2568 10.2539 35.042C10.7617 34.8271 11.2988 34.7197 11.8652 34.7197ZM10.3711 39.583C10.957 39.583 11.5137 39.5195 12.041 39.3926C12.5781 39.2656 13.0859 39.0801 13.5645 38.8359L13.4326 38.499H13.4473C13.3105 38.167 13.0713 37.8936 12.7295 37.6787C12.3975 37.4639 12.0264 37.3564 11.6162 37.3564C11.0596 37.3564 10.6055 37.5127 10.2539 37.8252C9.91211 38.1377 9.74121 38.543 9.74121 39.041C9.74121 39.2168 9.77051 39.3926 9.8291 39.5684C9.91699 39.5781 10.0049 39.583 10.0928 39.583C10.1807 39.583 10.2734 39.583 10.3711 39.583ZM21.9873 29.1533C21.9873 28.792 22.1094 28.4893 22.3535 28.2451C22.6074 27.9912 22.915 27.8643 23.2764 27.8643C23.6279 27.8643 23.9307 27.9912 24.1846 28.2451C24.4385 28.4893 24.5654 28.792 24.5654 29.1533V35.3643C24.5752 35.9502 24.6875 36.502 24.9023 37.0195C25.127 37.5273 25.4248 37.9717 25.7959 38.3525C26.1768 38.7334 26.6211 39.0361 27.1289 39.2607C27.6367 39.4756 28.1885 39.583 28.7842 39.583C29.3799 39.583 29.917 39.4707 30.3955 39.2461C30.8838 39.0215 31.2988 38.7139 31.6406 38.3232C31.9824 37.9326 32.2461 37.4785 32.4316 36.9609C32.627 36.4336 32.7246 35.8721 32.7246 35.2764V29.1533C32.7246 28.9775 32.7588 28.8115 32.8271 28.6553C32.9053 28.499 33.0029 28.3623 33.1201 28.2451C33.2373 28.1279 33.374 28.0352 33.5303 27.9668C33.6963 27.8984 33.8672 27.8643 34.043 27.8643C34.4141 27.8643 34.7168 27.9912 34.9512 28.2451C35.1953 28.4893 35.3174 28.792 35.3174 29.1533V35.2178V35.291C35.3174 36.2383 35.1514 37.1318 34.8193 37.9717C34.4971 38.8018 34.0479 39.5293 33.4717 40.1543C32.8955 40.7793 32.207 41.2725 31.4062 41.6338C30.6055 41.9951 29.7314 42.1758 28.7842 42.1758C27.8271 42.1758 26.9336 41.9951 26.1035 41.6338C25.2832 41.2725 24.5654 40.7793 23.9502 40.1543C23.3447 39.5293 22.8662 38.8018 22.5146 37.9717C22.1631 37.1318 21.9873 36.2383 21.9873 35.291V29.1533ZM37.9541 24.6709C37.9541 24.4658 37.9932 24.2754 38.0713 24.0996C38.1494 23.9238 38.252 23.7725 38.3789 23.6455C38.5156 23.5088 38.6719 23.4014 38.8477 23.3232C39.0332 23.2451 39.2285 23.2061 39.4336 23.2061C39.6387 23.2061 39.8291 23.2451 40.0049 23.3232C40.1807 23.4014 40.3369 23.5088 40.4736 23.6455C40.6104 23.7725 40.7178 23.9238 40.7959 24.0996C40.874 24.2754 40.9131 24.4658 40.9131 24.6709C40.9131 24.876 40.874 25.0664 40.7959 25.2422C40.7178 25.418 40.6104 25.5742 40.4736 25.7109C40.3369 25.8379 40.1807 25.9404 40.0049 26.0186C39.8291 26.0967 39.6387 26.1357 39.4336 26.1357C39.2285 26.1357 39.0332 26.0967 38.8477 26.0186C38.6719 25.9404 38.5156 25.8379 38.3789 25.7109C38.252 25.5742 38.1494 25.418 38.0713 25.2422C37.9932 25.0664 37.9541 24.876 37.9541 24.6709ZM38.1152 29.168C38.1152 28.9922 38.1494 28.8262 38.2178 28.6699C38.2861 28.5039 38.3789 28.3623 38.4961 28.2451C38.623 28.1279 38.7646 28.0352 38.9209 27.9668C39.0869 27.8984 39.2627 27.8643 39.4482 27.8643C39.8096 27.8643 40.1074 27.9912 40.3418 28.2451C40.5859 28.499 40.708 28.8066 40.708 29.168V40.8135C40.708 41.1748 40.5811 41.4824 40.3271 41.7363C40.083 41.9805 39.7852 42.1025 39.4336 42.1025C39.0723 42.1025 38.7598 41.9805 38.4961 41.7363C38.2422 41.4824 38.1152 41.1748 38.1152 40.8135V29.168ZM54.9609 27.8643C55.0879 27.8643 55.2246 27.8936 55.3711 27.9521C55.5176 28.0107 55.6543 28.0938 55.7812 28.2012C55.9082 28.3086 56.0107 28.4404 56.0889 28.5967C56.1768 28.7432 56.2256 28.9141 56.2354 29.1094V29.2266C56.2256 29.4023 56.1816 29.5684 56.1035 29.7246C56.0254 29.8809 55.9229 30.0127 55.7959 30.1201L46.9043 39.4805H55.3125C55.6836 39.4805 55.9961 39.5977 56.25 39.832C56.5039 40.0664 56.6309 40.3594 56.6309 40.7109C56.6309 40.8867 56.5967 41.0527 56.5283 41.209C56.46 41.3652 56.3672 41.502 56.25 41.6191C56.1328 41.7363 55.9912 41.8291 55.8252 41.8975C55.6689 41.9658 55.498 42 55.3125 42H44.1943C44.0186 42 43.8477 41.9658 43.6816 41.8975C43.5254 41.8291 43.3887 41.7363 43.2715 41.6191C43.1543 41.502 43.0615 41.3652 42.9932 41.209C42.9248 41.0527 42.8906 40.8867 42.8906 40.7109C42.8809 40.4082 43.0127 40.1104 43.2861 39.8174L52.1777 30.4277H44.3994C44.0381 30.4277 43.7305 30.3057 43.4766 30.0615C43.2324 29.8076 43.1104 29.5 43.1104 29.1387C43.1104 28.7773 43.2324 28.4746 43.4766 28.2305C43.7305 27.9863 44.0381 27.8643 44.3994 27.8643H54.9609Z" fill="black"/>
</svg>
